# MagicaVoxel @ Ephtracy

# material
mtllib id-beach-hotdog2.mtl
usemtl palette

# normals
vn -1 0 0
vn 1 0 0
vn 0 0 1
vn 0 0 -1
vn 0 -1 0
vn 0 1 0

# texcoords
vt 0.0996094 0.5
vt 0.423828 0.5
vt 0.466797 0.5

# verts
v -2 0 1
v -2 0 -2
v -2 1 2
v -2 1 1
v -2 1 -2
v -2 1 -3
v -2 3 3
v -2 3 2
v -2 4 -2
v -2 4 -3
v -2 6 4
v -2 6 3
v -2 6 -1
v -2 6 -2
v -2 8 -0
v -2 8 -1
v -2 10 4
v -2 10 3
v -2 11 3
v -2 11 -0
v -1 0 -2
v -1 0 -4
v -1 1 -2
v -1 1 -3
v -1 1 -4
v -1 2 -3
v -1 2 -4
v -1 4 -2
v -1 4 -3
v -1 5 -2
v -1 5 -3
v -1 6 -1
v -1 6 -2
v -1 6 -3
v -1 7 -1
v -1 7 -2
v -1 8 -0
v -1 8 -1
v -1 8 -2
v -1 9 -0
v -1 9 -1
v -1 10 -0
v -1 10 -1
v -1 11 2
v -1 11 -0
v -1 12 2
v -1 12 -1
v 1 0 -2
v 1 0 -4
v 1 1 -2
v 1 1 -3
v 1 2 -3
v 1 2 -4
v 1 4 -2
v 1 4 -3
v 1 5 -2
v 1 5 -3
v 1 6 -2
v 1 6 -3
v 1 11 2
v 1 11 -1
v 1 12 2
v 1 12 -1
v 2 0 1
v 2 0 -2
v 2 1 2
v 2 1 1
v 2 1 -2
v 2 1 -3
v 2 3 3
v 2 3 2
v 2 4 -2
v 2 4 -3
v 2 6 4
v 2 6 3
v 2 8 -1
v 2 8 -2
v 2 10 4
v 2 10 3
v 2 11 3
v 2 11 -1
v -2 6 4
v -2 10 4
v 2 6 4
v 2 10 4
v -2 3 3
v -2 6 3
v -2 10 3
v -2 11 3
v 2 3 3
v 2 6 3
v 2 10 3
v 2 11 3
v -2 1 2
v -2 3 2
v -1 11 2
v -1 12 2
v 1 11 2
v 1 12 2
v 2 1 2
v 2 3 2
v -2 0 1
v -2 1 1
v 2 0 1
v 2 1 1
v -2 8 -0
v -2 11 -0
v -1 8 -0
v -1 9 -0
v -1 10 -0
v -1 11 -0
v -2 6 -1
v -2 8 -1
v -1 6 -1
v -1 7 -1
v -1 8 -1
v -1 9 -1
v -1 10 -1
v -1 12 -1
v 0 8 -1
v 0 9 -1
v 0 10 -1
v 0 11 -1
v 1 8 -1
v 1 9 -1
v 1 10 -1
v 1 11 -1
v 1 12 -1
v 2 8 -1
v 2 11 -1
v -2 0 -2
v -2 1 -2
v -2 4 -2
v -2 6 -2
v -1 0 -2
v -1 1 -2
v -1 4 -2
v -1 5 -2
v -1 6 -2
v -1 7 -2
v -1 8 -2
v 0 6 -2
v 0 7 -2
v 0 8 -2
v 1 0 -2
v 1 1 -2
v 1 4 -2
v 1 5 -2
v 1 6 -2
v 1 7 -2
v 1 8 -2
v 2 0 -2
v 2 1 -2
v 2 4 -2
v 2 8 -2
v -2 1 -3
v -2 4 -3
v -1 1 -3
v -1 2 -3
v -1 3 -3
v -1 4 -3
v -1 5 -3
v -1 6 -3
v 0 2 -3
v 0 3 -3
v 0 4 -3
v 0 5 -3
v 0 6 -3
v 1 1 -3
v 1 2 -3
v 1 3 -3
v 1 4 -3
v 1 5 -3
v 1 6 -3
v 2 1 -3
v 2 4 -3
v -1 0 -4
v -1 1 -4
v -1 2 -4
v 0 1 -4
v 0 2 -4
v 1 0 -4
v 1 2 -4
v -2 0 1
v 2 0 1
v -1 0 -1
v 1 0 -1
v -2 0 -2
v -1 0 -2
v 1 0 -2
v 2 0 -2
v -1 0 -4
v 1 0 -4
v -2 1 2
v 2 1 2
v -2 1 1
v 2 1 1
v -2 1 -2
v -1 1 -2
v 1 1 -2
v 2 1 -2
v -2 1 -3
v -1 1 -3
v 1 1 -3
v 2 1 -3
v -2 3 3
v 2 3 3
v -2 3 2
v 2 3 2
v -2 6 4
v 2 6 4
v -2 6 3
v 2 6 3
v -1 2 -3
v 0 2 -3
v 1 2 -3
v -1 2 -4
v 0 2 -4
v 1 2 -4
v -2 4 -2
v -1 4 -2
v 1 4 -2
v 2 4 -2
v -2 4 -3
v -1 4 -3
v 1 4 -3
v 2 4 -3
v -2 6 -1
v -1 6 -1
v -2 6 -2
v -1 6 -2
v 0 6 -2
v 1 6 -2
v -1 6 -3
v 0 6 -3
v 1 6 -3
v -2 8 -0
v -1 8 -0
v -2 8 -1
v -1 8 -1
v 0 8 -1
v 1 8 -1
v 2 8 -1
v -1 8 -2
v 0 8 -2
v 1 8 -2
v 2 8 -2
v -2 10 4
v 2 10 4
v -2 10 3
v 2 10 3
v -2 11 3
v 2 11 3
v -1 11 2
v 1 11 2
v -2 11 -0
v -1 11 -0
v 1 11 -1
v 2 11 -1
v -1 12 2
v 1 12 2
v -1 12 -1
v 1 12 -1

# faces
f 4/3/1 2/3/1 1/3/1
f 5/3/1 2/3/1 4/3/1
f 8/3/1 4/3/1 3/3/1
f 8/3/1 6/3/1 5/3/1
f 8/3/1 5/3/1 4/3/1
f 9/3/1 6/3/1 8/3/1
f 9/3/1 8/3/1 7/3/1
f 10/3/1 6/3/1 9/3/1
f 12/3/1 9/3/1 7/3/1
f 13/3/1 9/3/1 12/3/1
f 14/3/1 9/3/1 13/3/1
f 15/3/1 12/3/1 11/3/1
f 15/3/1 13/3/1 12/3/1
f 16/3/1 13/3/1 15/3/1
f 17/3/1 15/3/1 11/3/1
f 18/3/1 15/3/1 17/3/1
f 19/3/1 15/3/1 18/3/1
f 20/3/1 15/3/1 19/3/1
f 23/1/1 22/1/1 21/1/1
f 24/1/1 22/1/1 23/1/1
f 25/1/1 22/1/1 24/1/1
f 26/2/1 25/2/1 24/2/1
f 27/2/1 25/2/1 26/2/1
f 30/1/1 29/1/1 28/1/1
f 31/1/1 29/1/1 30/1/1
f 33/2/1 31/2/1 30/2/1
f 34/2/1 31/2/1 33/2/1
f 35/1/1 33/1/1 32/1/1
f 36/1/1 33/1/1 35/1/1
f 38/2/1 36/2/1 35/2/1
f 39/2/1 36/2/1 38/2/1
f 40/1/1 38/1/1 37/1/1
f 41/1/1 38/1/1 40/1/1
f 42/2/1 41/2/1 40/2/1
f 43/2/1 41/2/1 42/2/1
f 45/1/1 43/1/1 42/1/1
f 46/1/1 45/1/1 44/1/1
f 47/1/1 43/1/1 45/1/1
f 47/1/1 45/1/1 46/1/1
f 48/1/2 49/1/2 50/1/2
f 50/1/2 49/1/2 51/1/2
f 51/1/2 49/1/2 52/1/2
f 52/1/2 49/1/2 53/1/2
f 54/2/2 55/2/2 56/2/2
f 56/2/2 55/2/2 57/2/2
f 56/1/2 57/1/2 58/1/2
f 58/1/2 57/1/2 59/1/2
f 60/1/2 61/1/2 62/1/2
f 62/1/2 61/1/2 63/1/2
f 64/3/2 65/3/2 67/3/2
f 67/3/2 65/3/2 68/3/2
f 66/3/2 67/3/2 71/3/2
f 68/3/2 69/3/2 71/3/2
f 67/3/2 68/3/2 71/3/2
f 71/3/2 69/3/2 72/3/2
f 70/3/2 71/3/2 72/3/2
f 72/3/2 69/3/2 73/3/2
f 70/3/2 72/3/2 75/3/2
f 75/3/2 72/3/2 76/3/2
f 74/3/2 75/3/2 76/3/2
f 76/3/2 72/3/2 77/3/2
f 74/3/2 76/3/2 78/3/2
f 78/3/2 76/3/2 79/3/2
f 79/3/2 76/3/2 80/3/2
f 80/3/2 76/3/2 81/3/2
f 84/3/3 83/3/3 82/3/3
f 85/3/3 83/3/3 84/3/3
f 90/3/3 87/3/3 86/3/3
f 91/3/3 87/3/3 90/3/3
f 92/3/3 89/3/3 88/3/3
f 93/3/3 89/3/3 92/3/3
f 98/1/3 97/1/3 96/1/3
f 99/1/3 97/1/3 98/1/3
f 100/3/3 95/3/3 94/3/3
f 101/3/3 95/3/3 100/3/3
f 104/3/3 103/3/3 102/3/3
f 105/3/3 103/3/3 104/3/3
f 106/3/4 107/3/4 108/3/4
f 108/3/4 107/3/4 109/3/4
f 109/3/4 107/3/4 110/3/4
f 110/3/4 107/3/4 111/3/4
f 112/3/4 113/3/4 114/3/4
f 114/3/4 113/3/4 115/3/4
f 115/3/4 113/3/4 116/3/4
f 116/1/4 117/1/4 120/1/4
f 117/2/4 118/2/4 121/2/4
f 120/1/4 117/1/4 121/1/4
f 118/1/4 119/1/4 122/1/4
f 121/2/4 118/2/4 122/2/4
f 122/1/4 119/1/4 123/1/4
f 120/2/4 121/2/4 124/2/4
f 121/1/4 122/1/4 125/1/4
f 124/2/4 121/2/4 125/2/4
f 122/2/4 123/2/4 126/2/4
f 125/1/4 122/1/4 126/1/4
f 123/1/4 119/1/4 127/1/4
f 126/2/4 123/2/4 127/2/4
f 127/1/4 119/1/4 128/1/4
f 125/3/4 126/3/4 129/3/4
f 124/3/4 125/3/4 129/3/4
f 126/3/4 127/3/4 129/3/4
f 129/3/4 127/3/4 130/3/4
f 131/3/4 132/3/4 135/3/4
f 135/3/4 132/3/4 136/3/4
f 133/3/4 134/3/4 137/3/4
f 137/3/4 134/3/4 138/3/4
f 138/3/4 134/3/4 139/3/4
f 139/1/4 140/1/4 142/1/4
f 140/2/4 141/2/4 143/2/4
f 142/1/4 140/1/4 143/1/4
f 143/2/4 141/2/4 144/2/4
f 142/2/4 143/2/4 149/2/4
f 143/1/4 144/1/4 150/1/4
f 149/2/4 143/2/4 150/2/4
f 150/1/4 144/1/4 151/1/4
f 145/3/4 146/3/4 152/3/4
f 152/3/4 146/3/4 153/3/4
f 147/3/4 148/3/4 154/3/4
f 148/3/4 149/3/4 154/3/4
f 149/3/4 150/3/4 154/3/4
f 150/3/4 151/3/4 154/3/4
f 154/3/4 151/3/4 155/3/4
f 156/3/4 157/3/4 158/3/4
f 158/3/4 157/3/4 159/3/4
f 159/3/4 157/3/4 160/3/4
f 160/3/4 157/3/4 161/3/4
f 159/1/4 160/1/4 164/1/4
f 160/2/4 161/2/4 165/2/4
f 164/1/4 160/1/4 165/1/4
f 161/1/4 162/1/4 166/1/4
f 165/2/4 161/2/4 166/2/4
f 162/2/4 163/2/4 167/2/4
f 166/1/4 162/1/4 167/1/4
f 167/2/4 163/2/4 168/2/4
f 164/2/4 165/2/4 170/2/4
f 165/1/4 166/1/4 171/1/4
f 170/2/4 165/2/4 171/2/4
f 166/2/4 167/2/4 172/2/4
f 171/1/4 166/1/4 172/1/4
f 167/1/4 168/1/4 173/1/4
f 172/2/4 167/2/4 173/2/4
f 173/1/4 168/1/4 174/1/4
f 169/3/4 170/3/4 175/3/4
f 170/3/4 171/3/4 175/3/4
f 171/3/4 172/3/4 175/3/4
f 175/3/4 172/3/4 176/3/4
f 177/1/4 178/1/4 180/1/4
f 178/2/4 179/2/4 180/2/4
f 180/2/4 179/2/4 181/2/4
f 177/1/4 180/1/4 182/1/4
f 180/1/4 181/1/4 182/1/4
f 182/1/4 181/1/4 183/1/4
f 186/3/5 185/3/5 184/3/5
f 187/3/5 185/3/5 186/3/5
f 188/3/5 186/3/5 184/3/5
f 189/1/5 187/1/5 186/1/5
f 189/3/5 186/3/5 188/3/5
f 190/3/5 185/3/5 187/3/5
f 190/1/5 187/1/5 189/1/5
f 191/3/5 185/3/5 190/3/5
f 192/1/5 190/1/5 189/1/5
f 193/1/5 190/1/5 192/1/5
f 196/3/5 195/3/5 194/3/5
f 197/3/5 195/3/5 196/3/5
f 202/3/5 199/3/5 198/3/5
f 203/3/5 199/3/5 202/3/5
f 204/3/5 201/3/5 200/3/5
f 205/3/5 201/3/5 204/3/5
f 208/3/5 207/3/5 206/3/5
f 209/3/5 207/3/5 208/3/5
f 212/3/5 211/3/5 210/3/5
f 213/3/5 211/3/5 212/3/5
f 214/2/6 215/2/6 217/2/6
f 215/1/6 216/1/6 218/1/6
f 217/2/6 215/2/6 218/2/6
f 218/1/6 216/1/6 219/1/6
f 220/3/6 221/3/6 224/3/6
f 224/3/6 221/3/6 225/3/6
f 222/3/6 223/3/6 226/3/6
f 226/3/6 223/3/6 227/3/6
f 228/3/6 229/3/6 230/3/6
f 230/3/6 229/3/6 231/3/6
f 231/2/6 232/2/6 234/2/6
f 232/1/6 233/1/6 235/1/6
f 234/2/6 232/2/6 235/2/6
f 235/1/6 233/1/6 236/1/6
f 237/3/6 238/3/6 239/3/6
f 239/3/6 238/3/6 240/3/6
f 240/2/6 241/2/6 244/2/6
f 241/1/6 242/1/6 245/1/6
f 244/2/6 241/2/6 245/2/6
f 242/3/6 243/3/6 246/3/6
f 245/1/6 242/1/6 246/1/6
f 246/3/6 243/3/6 247/3/6
f 248/3/6 249/3/6 250/3/6
f 250/3/6 249/3/6 251/3/6
f 252/3/6 253/3/6 254/3/6
f 254/3/6 253/3/6 255/3/6
f 252/3/6 254/3/6 256/3/6
f 256/3/6 254/3/6 257/3/6
f 255/3/6 253/3/6 258/3/6
f 258/3/6 253/3/6 259/3/6
f 260/1/6 261/1/6 262/1/6
f 262/1/6 261/1/6 263/1/6
